<svg width="14" height="18" viewBox="0 0 14 18" fill="none" xmlns="http://www.w3.org/2000/svg">
<path d="M12.625 1.50001H9.79219C9.44101 1.10682 9.01076 0.792241 8.52958 0.576851C8.04841 0.361461 7.52718 0.250122 7 0.250122C6.47282 0.250122 5.95158 0.361461 5.47041 0.576851C4.98924 0.792241 4.55899 1.10682 4.20781 1.50001H1.375C1.04348 1.50001 0.725537 1.6317 0.491116 1.86613C0.256696 2.10055 0.125 2.41849 0.125 2.75001V15.875C0.125 16.2065 0.256696 16.5245 0.491116 16.7589C0.725537 16.9933 1.04348 17.125 1.375 17.125H12.625C12.9565 17.125 13.2745 16.9933 13.5089 16.7589C13.7433 16.5245 13.875 16.2065 13.875 15.875V2.75001C13.875 2.41849 13.7433 2.10055 13.5089 1.86613C13.2745 1.6317 12.9565 1.50001 12.625 1.50001ZM7 1.50001C7.66304 1.50001 8.29893 1.7634 8.76777 2.23224C9.23661 2.70108 9.5 3.33697 9.5 4.00001H4.5C4.5 3.33697 4.76339 2.70108 5.23223 2.23224C5.70107 1.7634 6.33696 1.50001 7 1.50001ZM9.5 11.5H4.5C4.33424 11.5 4.17527 11.4342 4.05806 11.317C3.94085 11.1997 3.875 11.0408 3.875 10.875C3.875 10.7092 3.94085 10.5503 4.05806 10.4331C4.17527 10.3159 4.33424 10.25 4.5 10.25H9.5C9.66576 10.25 9.82473 10.3159 9.94194 10.4331C10.0592 10.5503 10.125 10.7092 10.125 10.875C10.125 11.0408 10.0592 11.1997 9.94194 11.317C9.82473 11.4342 9.66576 11.5 9.5 11.5ZM9.5 9.00001H4.5C4.33424 9.00001 4.17527 8.93416 4.05806 8.81695C3.94085 8.69974 3.875 8.54077 3.875 8.37501C3.875 8.20925 3.94085 8.05028 4.05806 7.93307C4.17527 7.81586 4.33424 7.75001 4.5 7.75001H9.5C9.66576 7.75001 9.82473 7.81586 9.94194 7.93307C10.0592 8.05028 10.125 8.20925 10.125 8.37501C10.125 8.54077 10.0592 8.69974 9.94194 8.81695C9.82473 8.93416 9.66576 9.00001 9.5 9.00001Z" fill="white"/>
</svg>
