<svg width="25" height="24" viewBox="0 0 25 24" fill="none" xmlns="http://www.w3.org/2000/svg">
<path d="M12.7759 2.25C10.8475 2.25 8.96245 2.82183 7.35907 3.89317C5.75569 4.96451 4.50601 6.48726 3.76806 8.26884C3.0301 10.0504 2.83702 12.0108 3.21323 13.9021C3.58943 15.7934 4.51803 17.5307 5.88159 18.8943C7.24515 20.2579 8.98244 21.1865 10.8738 21.5627C12.7651 21.9389 14.7255 21.7458 16.507 21.0078C18.2886 20.2699 19.8114 19.0202 20.8827 17.4168C21.9541 15.8134 22.5259 13.9284 22.5259 12C22.5232 9.41498 21.495 6.93661 19.6672 5.10872C17.8393 3.28084 15.3609 2.25273 12.7759 2.25ZM12.7759 20.25C11.1442 20.25 9.54913 19.7661 8.19243 18.8596C6.83572 17.9531 5.7783 16.6646 5.15388 15.1571C4.52945 13.6496 4.36608 11.9908 4.6844 10.3905C5.00273 8.79016 5.78847 7.32015 6.94225 6.16637C8.09604 5.01259 9.56604 4.22685 11.1664 3.90852C12.7667 3.59019 14.4255 3.75357 15.933 4.37799C17.4405 5.00242 18.729 6.05984 19.6355 7.41655C20.542 8.77325 21.0259 10.3683 21.0259 12C21.0234 14.1873 20.1534 16.2843 18.6068 17.8309C17.0601 19.3775 14.9632 20.2475 12.7759 20.25ZM14.2759 16.5C14.2759 16.6989 14.1969 16.8897 14.0562 17.0303C13.9156 17.171 13.7248 17.25 13.5259 17.25C13.1281 17.25 12.7465 17.092 12.4652 16.8107C12.1839 16.5294 12.0259 16.1478 12.0259 15.75V12C11.827 12 11.6362 11.921 11.4956 11.7803C11.3549 11.6397 11.2759 11.4489 11.2759 11.25C11.2759 11.0511 11.3549 10.8603 11.4956 10.7197C11.6362 10.579 11.827 10.5 12.0259 10.5C12.4237 10.5 12.8052 10.658 13.0865 10.9393C13.3678 11.2206 13.5259 11.6022 13.5259 12V15.75C13.7248 15.75 13.9156 15.829 14.0562 15.9697C14.1969 16.1103 14.2759 16.3011 14.2759 16.5ZM11.2759 7.875C11.2759 7.6525 11.3419 7.43499 11.4655 7.24998C11.5891 7.06498 11.7648 6.92078 11.9704 6.83564C12.1759 6.75049 12.4021 6.72821 12.6204 6.77162C12.8386 6.81502 13.039 6.92217 13.1964 7.0795C13.3537 7.23684 13.4609 7.43729 13.5043 7.65552C13.5477 7.87375 13.5254 8.09995 13.4402 8.30552C13.3551 8.51109 13.2109 8.68679 13.0259 8.8104C12.8409 8.93402 12.6234 9 12.4009 9C12.1025 9 11.8164 8.88147 11.6054 8.6705C11.3944 8.45952 11.2759 8.17337 11.2759 7.875Z" fill="#94A3B8"/>
</svg>
