<svg width="131" height="24" viewBox="0 0 131 24" fill="none" xmlns="http://www.w3.org/2000/svg">
<path d="M65.6174 8.33146H68.182V18.8949H70.6625V8.33146H73.2275V6.1716H65.6174V8.33146Z" fill="#0B57C0"/>
<path d="M33.8506 11.6881C34.3557 11.8212 34.8296 12.0104 35.2586 12.2502C35.702 12.4979 36.0789 12.8366 36.3773 13.2558C36.6854 13.6884 36.8419 14.2806 36.8419 15.0166C36.8419 15.5983 36.728 16.1319 36.5043 16.6032C36.2813 17.0724 35.9755 17.4736 35.5962 17.7957C35.22 18.1152 34.8108 18.3977 34.3002 18.5679C33.7947 18.7364 33.2081 18.8918 32.6375 18.8918C31.8802 18.8918 31.1628 18.7317 30.4722 18.3841C29.6082 17.9498 28.6665 16.9209 28.6665 16.9209L30.3268 15.4919C30.3268 15.4919 30.778 16.2088 31.4481 16.5631C32.0486 16.8814 32.7155 16.9335 33.4004 16.7278C33.6398 16.656 33.8604 16.5474 34.0559 16.4046C34.2466 16.2641 34.4051 16.0896 34.5259 15.885C34.6425 15.6868 34.6993 15.4608 34.6993 15.1933C34.6993 14.8297 34.5926 14.5647 34.3732 14.3834C34.1173 14.1721 33.7928 13.991 33.4079 13.846C32.9998 13.6928 32.5517 13.5434 32.076 13.4022C31.5683 13.2516 31.094 13.0393 30.6644 12.7717C30.2217 12.4959 29.8464 12.121 29.5493 11.6579C29.2458 11.1852 29.0913 10.5471 29.0913 9.76259C29.0913 9.40172 29.1702 9.01459 29.3254 8.61179C29.4818 8.20554 29.7107 7.77071 30.045 7.43642C30.3775 7.10395 30.7586 6.80119 31.2732 6.58079C31.7899 6.35959 32.4826 6.17179 33.2 6.17179C33.8422 6.17179 34.6396 6.32555 35.1833 6.61427C35.9445 7.0187 36.7606 7.96528 36.7606 7.96528L35.1737 9.40974C35.1737 9.40974 34.7407 8.8224 34.1657 8.51619C33.8521 8.34932 33.6072 8.27862 33.2 8.27862C32.8049 8.27862 32.4766 8.32964 32.2238 8.42982C31.974 8.52855 31.7738 8.6546 31.6292 8.80454C31.4847 8.95359 31.3827 9.11332 31.3253 9.28149C31.2646 9.45763 31.2337 9.61941 31.2337 9.76259C31.2337 10.175 31.3444 10.4772 31.5705 10.686C31.8247 10.9205 32.1464 11.1145 32.528 11.263C32.9295 11.4196 33.374 11.5623 33.8506 11.6881Z" fill="#0B57C0"/>
<path d="M76.999 13.1113C76.7798 13.0107 76.569 12.8985 76.368 12.7734C75.9254 12.4976 75.55 12.1227 75.2529 11.6596C74.9493 11.1868 74.795 10.5487 74.795 9.76422C74.795 9.40335 74.8738 9.01622 75.0291 8.61347C75.1853 8.20722 75.4143 7.77234 75.7487 7.43805C76.0812 7.10544 76.4622 6.80282 76.9766 6.58242C77.4933 6.36127 78.1863 6.17342 78.9036 6.17342C79.5458 6.17342 80.3433 6.32699 80.887 6.61595C81.6481 7.02019 82.4643 7.96691 82.4643 7.96691L80.8773 9.41118C80.8773 9.41118 80.4445 8.82403 79.8694 8.51782C79.5556 8.35077 79.3107 8.28025 78.9036 8.28025C78.5086 8.28025 78.1803 8.33127 77.9275 8.43145C77.6775 8.53018 77.4775 8.65628 77.3329 8.80636C77.1883 8.95522 77.0862 9.11495 77.0288 9.28312C76.9682 9.45926 76.9374 9.62104 76.9374 9.76422C76.9374 10.1767 77.048 10.4789 77.2741 10.6877C77.5283 10.9221 77.8501 11.1162 78.2316 11.2646C78.4265 11.3408 78.6322 11.4135 78.8462 11.4825L76.999 13.1113Z" fill="#0B57C0"/>
<path d="M59.51 18.8949H57.0289V6.1716H63.3402V8.33146H59.51V11.1327H63.1042V13.2926H59.51V18.8949Z" fill="#0B57C0"/>
<path d="M51.4783 18.8947H53.9584V6.17161H51.4783V18.8947Z" fill="#0B57C0"/>
<path d="M41.3209 11.1832H45.9108V6.1716H48.3912V18.8949H45.9108V13.2088H41.3209V18.8949H38.8401V6.1716H41.3209V11.1832Z" fill="#0B57C0"/>
<path d="M80.9621 12.2518C80.6338 12.0685 80.2789 11.9148 79.9044 11.7929L78.0012 13.4714C78.3944 13.5924 78.7679 13.7184 79.1116 13.8476C79.4964 13.9926 79.821 14.1737 80.077 14.385C80.2962 14.5663 80.403 14.8313 80.403 15.195C80.403 15.4624 80.3461 15.6885 80.2295 15.8867C80.1087 16.0912 79.9501 16.2658 79.7594 16.4062C79.564 16.5489 79.3434 16.6574 79.1042 16.7294C78.4191 16.9349 77.7522 16.8828 77.1515 16.5647C76.4818 16.2104 76.0304 15.4935 76.0304 15.4935L74.3701 16.9225C74.3701 16.9225 75.3117 17.9512 76.1759 18.3859C76.8665 18.7333 77.5838 18.8932 78.3412 18.8932C78.9115 18.8932 79.4982 18.738 80.0038 18.5695C80.5144 18.3994 80.9234 18.1168 81.2998 17.7973C81.6789 17.475 81.9849 17.0739 82.2078 16.6048C82.4316 16.1335 82.5454 15.5999 82.5454 15.0183C82.5454 14.2823 82.3892 13.69 82.0809 13.2574C81.7825 12.838 81.4056 12.4995 80.9621 12.2518Z" fill="#0B57C0"/>
<path fill-rule="evenodd" clip-rule="evenodd" d="M112.077 8.4635H112.027C111.097 7.05513 109.688 6.14955 107.953 6.14955C104.533 6.14955 102.395 9.09197 102.395 12.3115C102.395 15.6819 104.432 18.6744 108.029 18.6744C109.714 18.6744 111.122 17.7694 112.027 16.4363H112.077V18.2718H114.341V6.50184H112.077V8.4635ZM108.381 16.6625C105.992 16.6625 104.658 14.6005 104.658 12.3871C104.658 10.1992 106.042 8.16181 108.381 8.16181C110.82 8.16181 112.204 10.0985 112.204 12.3871C112.204 14.7011 110.846 16.6625 108.381 16.6625Z" fill="#0B57C0"/>
<path d="M128.453 2V6.50184H130.666V8.6145H128.453V18.2724H126.19V8.6145H124.957V6.50184H126.19V2H128.453Z" fill="#0B57C0"/>
<path d="M121.589 6.41916C120.08 6.41916 119.299 7.02982 118.745 8.41323V6.50185H116.482V18.272H118.745V12.9482C118.745 12.0871 118.819 8.66315 121.259 8.66315C121.504 8.66315 121.744 8.65694 122.001 8.65028C122.296 8.64262 122.614 8.63438 122.988 8.63438L122.969 6.41916H121.589Z" fill="#0B57C0"/>
<path d="M93.0866 8.23685C93.8155 6.97968 95.2239 6.14956 96.7079 6.14956C99.8017 6.14956 100.606 8.56442 100.606 11.23V18.272H98.343V11.6074C98.343 10.0983 98.1415 8.162 96.1548 8.162C93.74 8.162 93.5642 10.6765 93.5642 12.4879V18.272H91.3009V12.035C91.3009 10.5005 91.2254 8.162 89.1375 8.162C86.7236 8.162 86.5221 10.652 86.5221 12.4879V18.272H84.2584V6.50166H86.5221V7.98586H86.5725C87.2263 6.95436 88.4081 6.14956 89.691 6.14956C91.2254 6.14956 92.332 6.92941 93.0866 8.23685Z" fill="#0B57C0"/>
<path d="M9 1C9 0.447715 8.55228 0 8 0C7.44772 0 7 0.447715 7 1V2.66667H9V1Z" fill="#0B57C0"/>
<path d="M9 4H7V11.3333H9V4Z" fill="#0B57C0"/>
<path d="M9 12.6667H7V16.3333C7 16.8856 7.44772 17.3333 8 17.3333C8.55228 17.3333 9 16.8856 9 16.3333V12.6667Z" fill="#0B57C0"/>
<path d="M15 12.6667H17V20H15V12.6667Z" fill="#0B57C0"/>
<path d="M15 21.3333V23C15 23.5523 15.4477 24 16 24C16.5523 24 17 23.5523 17 23V21.3333H15Z" fill="#0B57C0"/>
<path d="M17 11.3333H15V7.66667C15 7.11438 15.4477 6.66667 16 6.66667C16.5523 6.66667 17 7.11438 17 7.66667V11.3333Z" fill="#0B57C0"/>
<path d="M5 6.00001V4.33334C5 3.78106 4.55228 3.33334 4 3.33334C3.44772 3.33334 3 3.78106 3 4.33334V6.00001H5Z" fill="#0B57C0"/>
<path d="M3 7.33334H5V11.3333H3V7.33334Z" fill="#0B57C0"/>
<path d="M3 12.6667V19.6667C3 20.219 3.44772 20.6667 4 20.6667C4.55228 20.6667 5 20.219 5 19.6667V12.6667H3Z" fill="#0B57C0"/>
<path d="M11 12.6667V16.6667H13V12.6667H11Z" fill="#0B57C0"/>
<path d="M19 12.6667V19.6667C19 20.219 19.4477 20.6667 20 20.6667C20.5523 20.6667 21 20.219 21 19.6667V12.6667H19Z" fill="#0B57C0"/>
<path d="M21 11.3333H19V7.33334H21V11.3333Z" fill="#0B57C0"/>
<path d="M21 6.00001V4.33334C21 3.78106 20.5523 3.33334 20 3.33334C19.4477 3.33334 19 3.78106 19 4.33334V6.00001H21Z" fill="#0B57C0"/>
<path d="M13 11.3333H11V4.33334C11 3.78106 11.4477 3.33334 12 3.33334C12.5523 3.33334 13 3.78106 13 4.33334V11.3333Z" fill="#0B57C0"/>
<path d="M13 18H11V19.6667C11 20.219 11.4477 20.6667 12 20.6667C12.5523 20.6667 13 20.219 13 19.6667V18Z" fill="#0B57C0"/>
</svg>
