<svg width="18" height="12" viewBox="0 0 18 12" fill="none" xmlns="http://www.w3.org/2000/svg">
<path d="M17.7501 1.375V6.375C17.7501 6.54076 17.6843 6.69973 17.567 6.81694C17.4498 6.93415 17.2909 7 17.1251 7C16.9593 7 16.8004 6.93415 16.6832 6.81694C16.566 6.69973 16.5001 6.54076 16.5001 6.375V2.88359L10.0673 9.31719C10.0092 9.3753 9.94031 9.4214 9.86444 9.45285C9.78857 9.4843 9.70724 9.50049 9.6251 9.50049C9.54297 9.50049 9.46164 9.4843 9.38577 9.45285C9.30989 9.4214 9.24096 9.3753 9.18291 9.31719L6.5001 6.63359L1.31729 11.8172C1.20002 11.9345 1.04096 12.0003 0.875103 12.0003C0.709251 12.0003 0.550191 11.9345 0.432916 11.8172C0.315641 11.6999 0.249756 11.5409 0.249756 11.375C0.249756 11.2091 0.315641 11.0501 0.432916 10.9328L6.05792 5.30781C6.11596 5.2497 6.18489 5.2036 6.26077 5.17215C6.33664 5.1407 6.41797 5.12451 6.5001 5.12451C6.58224 5.12451 6.66357 5.1407 6.73944 5.17215C6.81531 5.2036 6.88424 5.2497 6.94229 5.30781L9.6251 7.99141L15.6165 2H12.1251C11.9593 2 11.8004 1.93415 11.6832 1.81694C11.566 1.69973 11.5001 1.54076 11.5001 1.375C11.5001 1.20924 11.566 1.05027 11.6832 0.933058C11.8004 0.815848 11.9593 0.75 12.1251 0.75H17.1251C17.2909 0.75 17.4498 0.815848 17.567 0.933058C17.6843 1.05027 17.7501 1.20924 17.7501 1.375Z" fill="#94A3B8"/>
</svg>
